<?xml version="1.0"?>
<svg xmlns="http://www.w3.org/2000/svg" viewBox="0 0 512 512" width="512" height="512"><g id="Outline"><path d="M472,304H448V256a8,8,0,0,0-10.3-7.663l-13.7,4.11V232a8,8,0,0,0-10.3-7.663l-25.1,7.528A40.1,40.1,0,0,0,352,208H296V192h72a24.028,24.028,0,0,0,24-24V104a24.028,24.028,0,0,0-24-24h-8a64.072,64.072,0,0,0-64-64H216a64.072,64.072,0,0,0-64,64h-8a24.028,24.028,0,0,0-24,24v64a24.028,24.028,0,0,0,24,24h72v16H160a40.1,40.1,0,0,0-36.606,23.865L98.3,224.337A8,8,0,0,0,88,232v20.447l-13.7-4.11A8,8,0,0,0,64,256v48H40a24.028,24.028,0,0,0-24,24v64a24.028,24.028,0,0,0,24,24H64v24a8,8,0,0,0,5.7,7.663l159.9,47.971.047.014.051.015v0A8,8,0,0,0,232,496h48a8,8,0,0,0,2.3-.339v0l.051-.015.047-.014,159.9-47.971A8,8,0,0,0,448,440V416h24a24.028,24.028,0,0,0,24-24V328A24.028,24.028,0,0,0,472,304ZM152,176h-8a8.009,8.009,0,0,1-8-8V104a8.009,8.009,0,0,1,8-8h8Zm208,49.384a24.088,24.088,0,0,1,13.061,11.144L360,240.446ZM360,96h8a8.009,8.009,0,0,1,8,8v64a8.009,8.009,0,0,1-8,8h-8ZM184,88v88H168V80a48.055,48.055,0,0,1,48-48h80a48.055,48.055,0,0,1,48,48v96H328V88a24.028,24.028,0,0,0-24-24H208A24.028,24.028,0,0,0,184,88Zm16,88V155.7a32,32,0,1,0,0-55.39V88a8.009,8.009,0,0,1,8-8h96a8.009,8.009,0,0,1,8,8v12.305a32,32,0,1,0,0,55.39V176Zm0-48a16,16,0,1,1,16,16A16.019,16.019,0,0,1,200,128Zm112,0a16,16,0,1,1-16-16A16.019,16.019,0,0,1,312,128Zm-32,64v16H232V192ZM168,224H344v21.246l-67.312,20.192A40.2,40.2,0,0,0,256,279.819a40.2,40.2,0,0,0-20.691-14.382L168,245.246Zm-16,1.384v15.062l-13.061-3.918A24.088,24.088,0,0,1,152,225.384ZM32,328a8.009,8.009,0,0,1,8-8H64v16H32Zm8,72a8.009,8.009,0,0,1-8-8V352H88a8.009,8.009,0,0,1,8,8v32a8.009,8.009,0,0,1-8,8Zm184,77.247-144-43.2V416h8a24.028,24.028,0,0,0,24-24V360a24.028,24.028,0,0,0-24-24H80V266.752l144,43.2Zm-120-220v-14.5l126.708,38.01A24.107,24.107,0,0,1,246.657,296H233.176ZM272,480H240V312h32Zm6.824-184H265.343a24.1,24.1,0,0,1,15.946-15.237L408,242.752v14.5ZM432,434.048l-144,43.2V309.953l144-43.2V336h-8a24.028,24.028,0,0,0-24,24v32a24.028,24.028,0,0,0,24,24h8ZM480,392a8.009,8.009,0,0,1-8,8H424a8.009,8.009,0,0,1-8-8V360a8.009,8.009,0,0,1,8-8h56Zm0-56H448V320h24a8.009,8.009,0,0,1,8,8Z"/><rect x="248" y="240" width="16" height="16"/><rect x="216" y="240" width="16" height="16"/><rect x="280" y="240" width="16" height="16"/></g></svg>
