<svg height="512" viewBox="0 0 64 64" width="512" xmlns="http://www.w3.org/2000/svg"><g id="Web-Browser-Coding-Programing-Engineer"><path d="m31 11v30h-20a2.006 2.006 0 0 1 -2-2v-28z" fill="#3d9ae2"/><path d="m61 57v3a1 1 0 0 1 -1 1h-56a1 1 0 0 1 -1-1v-3z" fill="#acabb1"/><path d="m55 5v34a2.006 2.006 0 0 1 -2 2h-22v-38h22a2.006 2.006 0 0 1 2 2z" fill="#5aaae7"/><path d="m31 3v8h-22v-6a2.006 2.006 0 0 1 2-2z" fill="#ff5023"/><path d="m29 33v4l-3.32.47a9.8 9.8 0 0 1 -1.09 2.62l.68.91h-14.27v-14.64a9.427 9.427 0 0 1 2.53-1.04l.47-3.32h4l.47 3.32a9.8 9.8 0 0 1 2.62 1.09l2.69-2.02 2.83 2.83-2.02 2.69a9.8 9.8 0 0 1 1.09 2.62z" fill="#1e81ce"/><path d="m23.68 35.47a9.8 9.8 0 0 1 -1.09 2.62l2.02 2.69-.22.22h-13.39a2.006 2.006 0 0 1 -2-2v-14.64a9.427 9.427 0 0 1 2.53-1.04l.47-3.32h4l.47 3.32a9.8 9.8 0 0 1 2.62 1.09l2.69-2.02 2.83 2.83-2.02 2.69a9.8 9.8 0 0 1 1.09 2.62l3.32.47v4z" fill="#ff9811"/><circle cx="14" cy="33" fill="#ffd422" r="5"/><path d="m55 45h-38.86-4.28-2.86l-6 12h58z" fill="#c6c5ca"/><g fill="#acabb1"><path d="m10 52h2v2h-2z"/><path d="m14 52h2v2h-2z"/><path d="m18 52h28v2h-28z"/><path d="m48 52h2v2h-2z"/><path d="m52 52h2v2h-2z"/><path d="m15 48h2v2h-2z"/><path d="m11 48h2v2h-2z"/><path d="m19 48h2v2h-2z"/><path d="m23 48h2v2h-2z"/><path d="m27 48h2v2h-2z"/><path d="m31 48h2v2h-2z"/><path d="m35 48h2v2h-2z"/><path d="m39 48h2v2h-2z"/><path d="m43 48h2v2h-2z"/><path d="m47 48h2v2h-2z"/><path d="m51 48h2v2h-2z"/></g><path d="m12 6h2v2h-2z" fill="#ed1c24"/><path d="m16 6h2v2h-2z" fill="#ed1c24"/><path d="m20 6h2v2h-2z" fill="#ed1c24"/><path d="m38.293 15.707-3-3a1 1 0 0 1 0-1.414l3-3 1.414 1.414-2.293 2.293 2.293 2.293z" fill="#1e81ce"/><path d="m47.707 15.707-1.414-1.414 2.293-2.293-2.293-2.293 1.414-1.414 3 3a1 1 0 0 1 0 1.414z" fill="#1e81ce"/><path d="m39.838 11h6.325v2h-6.325z" fill="#1e81ce" transform="matrix(.316 -.949 .949 .316 18.012 48.995)"/><path d="m35 19h4v2h-4z" fill="#1e81ce"/><path d="m41 19h8v2h-8z" fill="#1e81ce"/><path d="m37 23h6v2h-6z" fill="#1e81ce"/><path d="m45 23h4v2h-4z" fill="#1e81ce"/><path d="m35 27h4v2h-4z" fill="#1e81ce"/><path d="m41 27h6v2h-6z" fill="#1e81ce"/><path d="m37 31h8v2h-8z" fill="#1e81ce"/><path d="m47 31h2v2h-2z" fill="#1e81ce"/></g></svg>