<svg height="512" viewBox="0 0 60 60" width="512" xmlns="http://www.w3.org/2000/svg"><g id="011---Gaming"><path id="Shape" d="m56 0h-52c-2.209139 0-4 1.790861-4 4v39c0 2.209139 1.790861 4 4 4h17v3h-2.5c-.91935-.002883-1.7211326.624078-1.94 1.517l-1.5 6c-.1486083.5971411-.0140577 1.2294498.364801 1.7143498.3788587.4849001.9598439.7684036 1.575199.7686502h26c.6153551-.0002466 1.1963403-.2837501 1.575199-.7686502.3788587-.4849.5134093-1.1172087.364801-1.7143498l-1.5-6c-.2195124-.892505-1.0208992-1.5191565-1.94-1.517h-2.5v-3h17c2.209139 0 4-1.790861 4-4v-39c0-2.209139-1.790861-4-4-4zm-54 4c0-1.1045695.8954305-2 2-2h52c1.1045695 0 2 .8954305 2 2v33h-56zm39.5 48 1.5 6h-26l1.5-6h2.5v2c0 1.1045695.8954305 2 2 2h14c1.1045695 0 2-.8954305 2-2v-2zm-4.5 2h-14v-7h14zm19-9h-52c-1.1045695 0-2-.8954305-2-2v-4h56v4c0 1.1045695-.8954305 2-2 2z"/><path id="Shape" d="m32 41h-4c-.5522847 0-1 .4477153-1 1s.4477153 1 1 1h4c.5522847 0 1-.4477153 1-1s-.4477153-1-1-1z"/><path id="Shape" d="m15.15 32.49c2.490556.3470414 4.8327744-1.2685811 5.393-3.72l1.133-4.795c1.2673064 1.0441119 3.0057499 1.307611 4.5255413.6859446 1.5197915-.6216664 2.5752015-2.0279833 2.7474587-3.6609446h2.1c.1722572 1.6329613 1.2276672 3.0392782 2.7474587 3.6609446 1.5197914.6216664 3.2582349.3581673 4.5255413-.6859446l1.13 4.78c.5420681 2.4676469 2.8946034 4.1003454 5.3959561 3.7448831 2.5013528-.3554623 4.305898-2.5789153 4.1390439-5.0998831-1.2-15.352-.993-12.822-1.033-13.135-.3465029-3.1957438-2.8173311-5.74893296-6-6.2-3.049-.4-3.665.938-5.784.938-13.837 0-12.985.16-14.486-.467-2.0502859-.85209665-4.383241-.6809813-6.287256.4611516s-3.1532822 3.1198315-3.366744 5.3298484c-.009.1-1.025 13.1-1.025 13.216-.0784809 2.4635132 1.7057889 4.5930145 4.145 4.947zm3.443-4.165c-.3134279 1.4192972-1.6510688 2.3703856-3.0945762 2.2003032-1.4435074-.1700825-2.5234595-1.4060259-2.4984238-2.8593032.0020387-.0369719.0020387-.0740281 0-.111.732-9.4.581-8.167.75-7.974 1.5687301 1.8271922 3.974382 2.7077244 6.352 2.325zm5.907-5.325c-1.3807119 0-2.5-1.1192881-2.5-2.5s1.1192881-2.5 2.5-2.5 2.5 1.1192881 2.5 2.5-1.1192881 2.5-2.5 2.5zm11 0c-1.3807119 0-2.5-1.1192881-2.5-2.5s1.1192881-2.5 2.5-2.5 2.5 1.1192881 2.5 2.5-1.1192881 2.5-2.5 2.5zm9.07 7.51c-1.4670836.2015594-2.8438428-.7548253-3.167-2.2l-1.513-6.4c2.3750783.3874036 4.7820797-.4770455 6.368-2.287.154-.175.01-1.374.732 7.862 0 .062 0 .125.01.23-.0092371 1.4036879-1.0412296 2.5906916-2.43 2.795zm-25.57-20.51c1.864 0 2.549 1 4.7 1h12.472c1.0236368-.0222068 2.0333942-.2415421 2.974-.646 1.9936231-.80564716 4.2790776-.2464516 5.6755061 1.3886593 1.3964286 1.635111 1.5910694 3.9799173.4833548 5.8228956s-3.2696869 2.7713518-5.3688609 2.3054451c-.2801561-2.049694-1.9284755-3.6403537-3.9868422-3.8473788s-3.9904363 1.0235285-4.6731578 2.9763788h-2.552c-.6816254-1.9526437-2.6123054-3.1840329-4.6702833-2.9787103-2.057978.2053225-3.7073139 1.7938864-3.9897167 3.8427103-1.7720709.4098395-3.6245977-.2049678-4.8-1.593-1.3003997-1.4662747-1.6181231-3.5596688-.8113488-5.3457584.8067744-1.7860895 2.587512-2.93161149 4.5473488-2.9252416z"/><path id="Shape" d="m17 15h1v1c0 .5522847.4477153 1 1 1s1-.4477153 1-1v-1h1c.5522847 0 1-.4477153 1-1s-.4477153-1-1-1h-1v-1c0-.5522847-.4477153-1-1-1s-1 .4477153-1 1v1h-1c-.5522847 0-1 .4477153-1 1s.4477153 1 1 1z"/><circle id="Oval" cx="41" cy="12" r="1"/><circle id="Oval" cx="41" cy="16" r="1"/><circle id="Oval" cx="43" cy="14" r="1"/><circle id="Oval" cx="39" cy="14" r="1"/><path id="Shape" d="m27 15h1c.5522847 0 1-.4477153 1-1s-.4477153-1-1-1h-1c-.5522847 0-1 .4477153-1 1s.4477153 1 1 1z"/><path id="Shape" d="m32 15h1c.5522847 0 1-.4477153 1-1s-.4477153-1-1-1h-1c-.5522847 0-1 .4477153-1 1s.4477153 1 1 1z"/><path id="Shape" d="m5 8c.55228475 0 1-.44771525 1-1v-2c0-.55228475-.44771525-1-1-1s-1 .44771525-1 1v2c0 .55228475.44771525 1 1 1z"/><path id="Shape" d="m5 29c.55228475 0 1-.4477153 1-1v-17c0-.5522847-.44771525-1-1-1s-1 .4477153-1 1v17c0 .5522847.44771525 1 1 1z"/></g></svg>