<svg height="512" viewBox="0 0 512 512" width="512" xmlns="http://www.w3.org/2000/svg"><path d="m312 248h120a190.53 190.53 0 0 0 32-105.689v-22.311h-184v22.311a190.53 190.53 0 0 0 32 105.689z" fill="#f27900"/><path d="m483.84 302.24a39.974 39.974 0 0 0 -35.84-22.24h-40a8 8 0 0 1 -8-8v-56h-64v56a8 8 0 0 1 -8 8h-47.33a39.989 39.989 0 0 0 -39.19 32.01l-41.48 183.99h55.72l25.41-85.43a60.473 60.473 0 0 0 14.18 37.43l.58 48h160.11a32 32 0 0 0 32-32v-144a39.649 39.649 0 0 0 -4.16-17.76z" fill="#fec9a3"/><path d="m488 320v144a32 32 0 0 1 -32 32h-126c51.26-31.94 119.27-91.38 153.84-193.76a39.649 39.649 0 0 1 4.16 17.76z" fill="#fec093"/><path d="m440 448v48h-144l-.69-48c-19.79-23.56-18.46-57.28.69-80v-88h24l7.21 25.23a42.421 42.421 0 0 0 81.58 0l7.21-25.23h24v88c.66.78 1.3 1.58 1.91 2.39a62.071 62.071 0 0 1 -1.91 77.61z" fill="#7eb457"/><path d="m400 248.493v-32.493h-64v32.263a68.743 68.743 0 0 0 27.208 7.582 71.865 71.865 0 0 0 36.792-7.352z" fill="#feb784"/><path d="m440 448v48h-122.45c40.91-25.69 88.75-65.74 124.36-125.61a62.071 62.071 0 0 1 -1.91 77.61z" fill="#77ad50"/><path d="m400.176 380.647a17.018 17.018 0 0 0 -22.915 5.1l-57.261 88.207 5.3 22.046 22.915-5.1 57.261-88.211a15.649 15.649 0 0 0 -5.3-22.042z" fill="#3d4d63"/><path d="m416 448-32-16-40 8v56h112a32 32 0 0 0 32-32v-24z" fill="#fec9a3"/><path d="m440 104v64a72 72 0 0 1 -67.75 71.88 73.77 73.77 0 0 1 -9.04-.04c-38.27-2.47-67.21-35.96-67.21-74.31v-61.53a72 72 0 1 1 144 0z" fill="#fec9a3"/><path d="m440 104v64a72 72 0 0 1 -67.75 71.88 71.99 71.99 0 0 0 38.75-63.88v-88a71.775 71.775 0 0 0 -21.09-50.91c-.85-.85-1.71-1.67-2.6-2.47a72.033 72.033 0 0 1 52.69 69.38z" fill="#fec093"/><path d="m368 200a24.027 24.027 0 0 1 -24-24h16a8 8 0 0 0 16 0h16a24.027 24.027 0 0 1 -24 24z" fill="#f7a468"/><path d="m464 120v32h-24v-32a86.3 86.3 0 0 1 -26.62-20.66 83.273 83.273 0 0 1 -5.38-6.89 86.176 86.176 0 0 1 -11.31-22.39l-4.69-14.06-16.02 51.26a121.609 121.609 0 0 1 -103.98 84.74v-72a96 96 0 0 1 192 0z" fill="#f98500"/><path d="m404 152a12 12 0 1 1 12-12 12.013 12.013 0 0 1 -12 12z" fill="#7a432a"/><path d="m464 120v32h-24v-32a86.3 86.3 0 0 1 -26.62-20.66 83.273 83.273 0 0 1 -5.38-6.89v-20.45a71.662 71.662 0 0 0 -15.72-44.9 96.072 96.072 0 0 1 71.72 92.9z" fill="#f27900"/><path d="m440 120h8a24 24 0 0 1 24 24 24 24 0 0 1 -24 24h-8a0 0 0 0 1 0 0v-48a0 0 0 0 1 0 0z" fill="#feb784"/><path d="m296 264v144a24.006 24.006 0 0 1 -24 24h-224c-.16 0-.32 0-.47-.01a24 24 0 0 1 -23.53-23.99v-144a24.006 24.006 0 0 1 24-24h224a24.006 24.006 0 0 1 24 24z" fill="#e0e0de"/><path d="m296 264v144a24.006 24.006 0 0 1 -24 24h-224c-.16 0-.32 0-.47-.01 68.89-28.67 170.2-86.57 223.02-191.99h1.45a24.006 24.006 0 0 1 24 24z" fill="#d6d6d4"/><path d="m128 464h96v32h-96z" fill="#b0b0ae"/><path d="m176 496h-80l32-128h64z" fill="#bfbfbd"/><g fill="#b0b0ae"><path d="m48 264h32v16h-32z"/><path d="m96 264h32v16h-32z"/><path d="m144 264h32v16h-32z"/><path d="m192 264h32v16h-32z"/><path d="m240 264h32v16h-32z"/></g></svg>