<svg height="512" viewBox="0 0 512 512" width="512" xmlns="http://www.w3.org/2000/svg"><path d="m451.417 303.041-61.417-15.041-22-16v-64h-80v64l-22 16-61.417 15.041a48 48 0 0 0 -36.583 46.622v146.337h320v-146.337a48 48 0 0 0 -36.583-46.622z" fill="#fec9a3"/><path d="m368 243.856v-35.856h-80v35.856a71.963 71.963 0 0 0 80 0z" fill="#feb784"/><path d="m488 349.66v146.34h-320v-146.34a48 48 0 0 1 36.58-46.62l61.42-15.04 14-16 48 16 48-16 14 16 43.61 10.68 17.81 4.36a48 48 0 0 1 36.58 46.62z" fill="#e0e0de"/><path d="m488 496h-246.38c53.25-24.97 145.37-82.73 191.99-197.32l17.81 4.36a48 48 0 0 1 36.58 46.62z" fill="#d6d6d4"/><path d="m216 392h16v104h-16z" fill="#bfbfbd"/><path d="m424 392h16v104h-16z" fill="#bfbfbd"/><path d="m285.657 340.928 42.343-52.928-48-16-14 16z" fill="#ebebe9"/><path d="m370.343 340.928-42.343-52.928 48-16 14 16z" fill="#ebebe9"/><path d="m328 288-16 20-8 188h48l-8-188z" fill="#348fd9"/><path d="m408 120h-8v48h8a24 24 0 1 0 0-48z" fill="#feb784"/><path d="m248.4 120h-.4a24 24 0 0 0 0 48h8v-48z" fill="#feb784"/><path d="m400 112v56a72 72 0 0 1 -144 0v-56a72.006 72.006 0 0 1 72-72c.34 0 .69 0 1.03.01a72 72 0 0 1 70.97 71.99z" fill="#fec9a3"/><path d="m400 112v56a72.027 72.027 0 0 1 -46.52 67.36 71.632 71.632 0 0 0 14.52-43.36v-88a72.086 72.086 0 0 0 -38.97-63.99 72 72 0 0 1 70.97 71.99z" fill="#fec093"/><path d="m256 120v-32c0-26.51 17.909-48 40-48l-1.408 5.068c-7.842 28.232-21.055 53.888-38.592 74.932z" fill="#f98500"/><path d="m368 40a54.626 54.626 0 0 0 -38.627-16h-73.373a40 40 0 0 0 40 40h72s14.463 34.956 32 56v-55.015a25.754 25.754 0 0 0 -32-24.985z" fill="#f98500"/><path d="m320.938 188.559h-16.938v-16h16.938a99.077 99.077 0 0 0 28.742-4.215l4.64 15.312a115.016 115.016 0 0 1 -33.382 4.903z" fill="#f7a468"/><g fill="#7a432a"><path d="m292 144a12 12 0 1 1 12-12 12.013 12.013 0 0 1 -12 12z"/><path d="m364 144a12 12 0 1 1 12-12 12.013 12.013 0 0 1 -12 12z"/><path d="m24 336h224v160h-224z"/></g><path d="m248 400-112 32-112-32v-64h224z" fill="#95573a"/><path d="m80 296v40h32v-32h48v32h32v-40a24 24 0 0 0 -24-24h-64a24 24 0 0 0 -24 24z" fill="#743b20"/><path d="m80 320h32v16h-32z" fill="#61311b"/><path d="m160 320h32v16h-32z" fill="#61311b"/><path d="m120.372 427.535 15.628 4.465 112-32v-64h-54.4z" fill="#8f4d2e"/><path d="m128 392h16v16h-16z" fill="#ffb531"/></svg>