<svg height="512" viewBox="0 0 512 512" width="512" xmlns="http://www.w3.org/2000/svg"><path d="m464 120v128h-192v-128a96 96 0 0 1 192 0z" fill="#7a432a"/><path d="m464 120v128h-94.99a72 72 0 0 0 38.99-64v-88a72.049 72.049 0 0 0 -57.16-70.47 96.082 96.082 0 0 1 113.16 94.47z" fill="#743b20"/><path d="m432 160h16v16h-16z" fill="#feb784"/><path d="m448 280h-40a8 8 0 0 1 -8-8v-56h-64v56a8 8 0 0 1 -8 8h-125.666l30.122-67.772-38.589-19.294-36.8 73.6a48 48 0 0 0 42.933 69.466h72l16.8 39.192c-13.629 22.235-11.287 51.62 6.516 72.808l.684 48h192v-176a40 40 0 0 0 -40-40z" fill="#fec9a3"/><path d="m400 248.492v-32.492h-64v32.262a68.777 68.777 0 0 0 27.208 7.582 71.865 71.865 0 0 0 36.792-7.352z" fill="#feb784"/><path d="m440 136v32a71.944 71.944 0 0 1 -76.79 71.84c-38.27-2.47-67.21-35.96-67.21-74.31v-29.53l12.07-6.9a132.39 132.39 0 0 0 59.93-73.1 132.38 132.38 0 0 0 59.93 73.1z" fill="#fec9a3"/><path d="m440 136v32a72.022 72.022 0 0 1 -56.84 70.4 71.85 71.85 0 0 0 24.84-54.4v-68.86a132.282 132.282 0 0 0 19.93 13.96z" fill="#fec093"/><path d="m368 200a24.027 24.027 0 0 1 -24-24h16a8 8 0 0 0 16 0h16a24.027 24.027 0 0 1 -24 24z" fill="#f7a468"/><path d="m446 136h-6v40h6c9.941 0 18-8.955 18-20s-8.059-20-18-20z" fill="#feb784"/><circle cx="332" cy="140" fill="#7a432a" r="12"/><circle cx="404" cy="140" fill="#7a432a" r="12"/><path d="m488 320v176h-192l-.06-3.91-.63-44.09c-17.8-21.19-20.14-50.57-6.51-72.81l-16.8-39.19h-72a48 48 0 0 1 -42.93-69.47l36.8-73.6 38.59 19.3-30.13 67.77h117.67l40.62 88 7.38 16 7.38-16 40.62-88h32a40.014 40.014 0 0 1 40 40z" fill="#f59898"/><path d="m488 320v176h-192l-.06-3.91c57.15-31.46 137.56-93.35 175.7-204.35a39.922 39.922 0 0 1 16.36 32.26z" fill="#ec8c8c"/><path d="m360 384h16v112h-16z" fill="#d47474"/><path d="m320 280-24 48h32l-8 24 48 32z" fill="#feb2b2"/><path d="m416 280 24 48h-32l8 24-48 32z" fill="#feb2b2"/><path d="m40 432h176v32h-176z" fill="#f7a116"/><path d="m40 400h176v32h-176z" fill="#ffb531"/><path d="m160 432h56v-32h-24z" fill="#f7a116"/><path d="m152 432a24 24 0 0 1 -24 24 24 24 0 0 1 -24-24h-80v56h208v-56z" fill="#95573a"/><path d="m136 488h96v-56h-40z" fill="#8f4d2e"/><path d="m240 440a32.032 32.032 0 0 1 -32-32v-16a16.021 16.021 0 0 0 -16-16h-16v-16h16a32.032 32.032 0 0 1 32 32v16a16 16 0 0 0 32 0v-152h16v152a32.032 32.032 0 0 1 -32 32z" fill="#2e3e51"/><path d="m256 256v11.7a47.889 47.889 0 0 0 16 9.5v-21.2z" fill="#29384a"/><path d="m433.875 442.852c17.4-20.7 17.984-50.008 1.406-69.7l12.235-10.312c20.992 24.922 21.039 61.468.484 87.976v45.184h-16v-48a8.011 8.011 0 0 1 1.875-5.148z" fill="#d47474"/><path d="m192 368v32h-128v-32l16-64h24v16h48v-16h24l8.1 32.39z" fill="#3d4d63"/><path d="m64 368h128v32h-128z" fill="#374559"/><path d="m192 368v32h-101.61c32.21-14.69 66.64-35.32 93.71-63.61z" fill="#374559"/><path d="m152 344a24.02 24.02 0 1 1 -5-14.65 24.006 24.006 0 0 1 5 14.65z" fill="#e0e0de"/><path d="m152 344a23.994 23.994 0 0 1 -41.41 16.51c12.97-8.22 25.75-18.48 36.41-31.16a23.857 23.857 0 0 1 5 14.65z" fill="#d6d6d4"/><path d="m304 272h-16a48 48 0 0 1 -48-48v-64a48 48 0 0 1 48-48h16v48h-32v64h32z" fill="#3d4d63"/><path d="m240 200h32v-64a81.853 81.853 0 0 0 -76.291 52.2l-1.842 4.739 38.589 19.294z" fill="#fec9a3"/></svg>