<svg height="512" viewBox="0 0 512 512" width="512" xmlns="http://www.w3.org/2000/svg"><path d="m368 24a96 96 0 0 0 -96 96v168h192v-168a96 96 0 0 0 -96-96z" fill="#61311b"/><path d="m432 160.113h16v16h-16z" fill="#feb784"/><path d="m424 280v160h-112v-160h16a8 8 0 0 0 8-8v-56h64v56a8 8 0 0 0 8 8z" fill="#fec9a3"/><path d="m312 352h112v88h-112z" fill="#4db7e5"/><path d="m400 248.492v-32.492h-64v32.262a68.76 68.76 0 0 0 27.208 7.582 71.865 71.865 0 0 0 36.792-7.352z" fill="#feb784"/><path d="m488 320v176.11l-192-.11-.11-7.96-.58-40.04a64.677 64.677 0 0 1 -15.17-38.24l-2.14.24-21.72 86.11h-50.25l35.45-184.1a39.989 39.989 0 0 1 39.19-32.01h39.33l48 152 48-152h32a40.042 40.042 0 0 1 40 40z" fill="#3d4d63"/><path d="m488 320v176.11l-192-.11-.11-7.96c51.86-24.92 140.32-82.69 178.53-198.05a39.817 39.817 0 0 1 13.58 30.01z" fill="#374559"/><path d="m288 496.113-.648-45.238c-20.594-26.527-20.563-63.105.445-88.031l12.234 10.312c-16.586 19.68-15.992 48.992 1.407 69.7a7.986 7.986 0 0 1 1.874 5.035l.688 48.222z" fill="#2a3845"/><path d="m448 496.113h-16v-48.113a8 8 0 0 1 1.875-5.148c17.4-20.7 17.984-50.012 1.406-69.7l12.235-10.3c20.992 24.914 21.039 61.457.484 87.976z" fill="#2a3845"/><path d="m320 280-24 32 32 16-16 16 56 88z" fill="#4c5d72"/><path d="m416 280 24 32-32 16 16 16-56 88z" fill="#4c5d72"/><path d="m360 432h16v64.113h-16z" fill="#2a3845"/><path d="m440 124v44a71.957 71.957 0 0 1 -76.79 71.84c-38.27-2.48-67.21-35.96-67.21-74.31v-12.08l2.74-1.24a134.177 134.177 0 0 0 71.76-79.72l5.5-16.49 4 8a134.125 134.125 0 0 0 25.13 34.86c.94.94 1.9 1.87 2.87 2.78a134.154 134.154 0 0 0 32 22.36z" fill="#fec9a3"/><path d="m440 124v44a72.019 72.019 0 0 1 -56.67 70.36 71.8 71.8 0 0 0 24.67-54.247v-82.47a134.154 134.154 0 0 0 32 22.357z" fill="#fec093"/><path d="m368 200a24.027 24.027 0 0 1 -24-24h16a8 8 0 0 0 16 0h16a24.027 24.027 0 0 1 -24 24z" fill="#f7a468"/><path d="m464 120v32h-24v-28a134.154 134.154 0 0 1 -32-22.36c-.97-.91-1.93-1.84-2.87-2.78a134.125 134.125 0 0 1 -25.13-34.86l-4-8-5.5 16.49a134.177 134.177 0 0 1 -71.76 79.72l-2.74 1.24-24 6.55v-40a96 96 0 0 1 192 0z" fill="#7a432a"/><path d="m448 176.113h-8v-48h8a23.9 23.9 0 0 1 24 23.887 24.1 24.1 0 0 1 -24 24.113z" fill="#feb784"/><path d="m56 464.113h280v32h-280z" fill="#c7c7c5"/><path d="m241.67 496.11h-170.98a18.7 18.7 0 0 1 -3.69-.37 18.351 18.351 0 0 1 -14.19-13.96l-28.47-128.12a15 15 0 0 1 -.34-3.13 14.425 14.425 0 0 1 14.42-14.42h178.54a18.355 18.355 0 0 1 17.99 14.75l24.67 123.35a18.307 18.307 0 0 1 -17.95 21.9z" fill="#e0e0de"/><ellipse cx="136" cy="416.113" fill="#ebebe9" rx="15.31" ry="16.721" transform="matrix(.691 -.723 .723 .691 -258.674 226.697)"/><path d="m241.67 496.11h-170.98a18.7 18.7 0 0 1 -3.69-.37c37.2-15.47 119.55-59.39 159.76-156.79a18.341 18.341 0 0 1 8.19 11.91l24.67 123.35a18.307 18.307 0 0 1 -17.95 21.9z" fill="#d6d6d4"/><path d="m384 120h56a0 0 0 0 1 0 0v24a16 16 0 0 1 -16 16h-24a16 16 0 0 1 -16-16v-24a0 0 0 0 1 0 0z" fill="#e0e0de"/><path d="m296 120h56a0 0 0 0 1 0 0v24a16 16 0 0 1 -16 16h-24a16 16 0 0 1 -16-16v-24a0 0 0 0 1 0 0z" fill="#e0e0de"/><path d="m440 112h-56a8 8 0 0 0 -8 8v8h-16v-8a8 8 0 0 0 -8-8h-56a8 8 0 0 0 -8 8v24a24.027 24.027 0 0 0 24 24h24a24.027 24.027 0 0 0 24-24h16a24.027 24.027 0 0 0 24 24h24a24.027 24.027 0 0 0 24-24v-24a8 8 0 0 0 -8-8zm-96 32a8.008 8.008 0 0 1 -8 8h-24a8.008 8.008 0 0 1 -8-8v-16h40zm88 0a8.008 8.008 0 0 1 -8 8h-24a8.008 8.008 0 0 1 -8-8v-16h40z" fill="#61311b"/></svg>